<?xml version="1.0" encoding="UTF-8"?>
<!DOCTYPE svg PUBLIC "-//W3C//DTD SVG 1.1//EN" "http://www.w3.org/Graphics/SVG/1.1/DTD/svg11.dtd">
<svg xmlns="http://www.w3.org/2000/svg" version="1.1" width="1024px" height="1024px" style="shape-rendering:geometricPrecision; text-rendering:geometricPrecision; image-rendering:optimizeQuality; fill-rule:evenodd; clip-rule:evenodd" xmlns:xlink="http://www.w3.org/1999/xlink">
<g><path style="opacity:1" fill="#daf0fd" d="M -0.5,-0.5 C 340.833,-0.5 682.167,-0.5 1023.5,-0.5C 1023.5,340.833 1023.5,682.167 1023.5,1023.5C 682.167,1023.5 340.833,1023.5 -0.5,1023.5C -0.5,682.167 -0.5,340.833 -0.5,-0.5 Z"/></g>
<g><path style="opacity:1" fill="#3f5b70" d="M 280.5,222.5 C 354.331,221.501 428.331,221.167 502.5,221.5C 502.5,226.5 502.5,231.5 502.5,236.5C 502.832,277.67 502.499,318.67 501.5,359.5C 501.5,313.833 501.5,268.167 501.5,222.5C 427.833,222.5 354.167,222.5 280.5,222.5 Z"/></g>
<g><path style="opacity:1" fill="#071b2a" d="M 280.5,222.5 C 354.167,222.5 427.833,222.5 501.5,222.5C 501.5,268.167 501.5,313.833 501.5,359.5C 500.501,314.336 500.168,269.003 500.5,223.5C 426.998,223.833 353.665,223.499 280.5,222.5 Z"/></g>
<g><path style="opacity:1" fill="#122636" d="M 280.5,222.5 C 353.665,223.499 426.998,223.833 500.5,223.5C 500.168,269.003 500.501,314.336 501.5,359.5C 499.857,370.286 495.857,380.12 489.5,389C 496.555,397.949 500.722,408.116 502,419.5C 502.667,482.833 502.667,546.167 502,609.5C 500.401,618.302 497.234,626.469 492.5,634C 497.592,641.778 500.592,650.278 501.5,659.5C 501.5,660.167 501.5,660.833 501.5,661.5C 500.501,706.664 500.168,751.997 500.5,797.5C 427.331,797.167 354.331,797.501 281.5,798.5C 281.167,798.5 280.833,798.5 280.5,798.5C 268.22,797.074 256.887,793.074 246.5,786.5C 226.386,772.841 214.553,753.841 211,729.5C 210.333,670.833 210.333,612.167 211,553.5C 211.21,551.942 211.71,550.609 212.5,549.5C 212.328,551.492 212.995,553.158 214.5,554.5C 213.171,610.462 213.171,666.462 214.5,722.5C 216.171,727.198 217.838,731.865 219.5,736.5C 220.93,736.421 222.264,736.754 223.5,737.5C 224.738,733.689 225.404,733.689 225.5,737.5C 228.388,737.22 229.888,738.553 230,741.5C 230.359,738.456 231.026,738.122 232,740.5C 232.399,740.272 232.565,739.938 232.5,739.5C 239.074,755.741 250.407,767.408 266.5,774.5C 270.424,776.865 274.757,778.365 279.5,779C 347.166,779.5 414.833,779.667 482.5,779.5C 482.667,738.499 482.5,697.499 482,656.5C 479.71,649.919 476.376,643.919 472,638.5C 456.584,628.875 441.084,619.375 425.5,610C 372.507,580.172 319.84,549.839 267.5,519C 260.04,519.895 253.374,522.728 247.5,527.5C 240.458,533.277 235.124,540.277 231.5,548.5C 230.867,548.12 230.2,547.787 229.5,547.5C 230.195,544.72 231.195,542.053 232.5,539.5C 230.578,538.04 229.911,536.373 230.5,534.5C 233.311,532.856 235.644,530.69 237.5,528C 236.692,527.692 236.025,527.192 235.5,526.5C 236.428,525.232 236.595,523.899 236,522.5C 234.59,521.213 233.09,520.046 231.5,519C 232.738,518.31 232.738,517.81 231.5,517.5C 234.167,515.167 236.833,512.833 239.5,510.5C 241.754,509.585 243.754,508.252 245.5,506.5C 241.773,503.639 237.773,501.305 233.5,499.5C 220.789,489.244 213.289,475.911 211,459.5C 210.333,403.833 210.333,348.167 211,292.5C 216.943,257.559 236.777,234.726 270.5,224C 273.757,222.957 277.09,222.457 280.5,222.5 Z"/></g>
<g><path style="opacity:1" fill="#122736" d="M 519.5,221.5 C 593.834,221.333 668.167,221.5 742.5,222C 764.182,225.498 781.848,235.665 795.5,252.5C 804.34,264.011 809.674,277.011 811.5,291.5C 811.5,292.167 811.5,292.833 811.5,293.5C 810.501,361.665 810.167,429.998 810.5,498.5C 713.665,498.167 616.999,498.501 520.5,499.5C 520.167,499.5 519.833,499.5 519.5,499.5C 519.5,412.167 519.5,324.833 519.5,237.5C 519.5,232.167 519.5,226.833 519.5,221.5 Z"/></g>
<g><path style="opacity:1" fill="#0f2332" d="M 538.5,241.5 C 538.5,321.167 538.5,400.833 538.5,480.5C 537.928,401.991 537.094,323.325 536,244.5C 535.667,247.167 535.333,249.833 535,252.5C 534.667,248.833 534.333,245.167 534,241.5C 533.781,242.938 533.281,244.271 532.5,245.5C 531.158,244.098 530.324,244.431 530,246.5C 529.667,245.833 529.333,245.167 529,244.5C 528.131,249.508 527.464,249.175 527,243.5C 526.667,243.833 526.333,244.167 526,244.5C 525.241,241.215 523.908,238.215 522,235.5C 521.502,232.518 521.335,229.518 521.5,226.5C 526.87,225.321 532.37,224.655 538,224.5C 553.576,225.405 569.076,225.405 584.5,224.5C 593.833,225.167 603.167,225.833 612.5,226.5C 615.806,225.703 619.139,225.87 622.5,227C 622.167,227.333 621.833,227.667 621.5,228C 627.638,228.141 633.638,228.808 639.5,230C 636.439,231.116 633.272,231.949 630,232.5C 624.712,232.021 620.045,232.021 616,232.5C 615.251,233.635 615.417,234.635 616.5,235.5C 618.929,235.579 621.429,235.245 624,234.5C 627.745,235.297 631.579,235.797 635.5,236C 634.234,236.309 633.067,236.809 632,237.5C 628.552,237.379 625.052,237.046 621.5,236.5C 594.85,237.15 568.184,237.816 541.5,238.5C 606.497,239.333 671.497,239.833 736.5,240C 670.332,240.167 604.332,240.667 538.5,241.5 Z"/></g>
<g><path style="opacity:1" fill="#c3e3fa" d="M 539.5,241.5 C 607.501,241.333 675.501,241.5 743.5,242C 748.293,243.209 752.96,244.709 757.5,246.5C 702.063,252.862 648.729,267.362 597.5,290C 578.071,299.132 558.904,308.632 540,318.5C 539.5,292.835 539.333,267.169 539.5,241.5 Z"/></g>
<g><path style="opacity:1" fill="#c4e3f9" d="M 482.5,241.5 C 482.832,252.187 482.499,262.854 481.5,273.5C 473.186,278.157 464.52,281.991 455.5,285C 434.86,289.768 415.193,297.102 396.5,307C 377.71,319.457 361.876,334.957 349,353.5C 328.219,377.474 302.719,394.308 272.5,404C 258.656,407.097 244.656,408.93 230.5,409.5C 230.5,371.5 230.5,333.5 230.5,295.5C 234.002,269.162 248.335,251.662 273.5,243C 343.13,241.516 412.796,241.016 482.5,241.5 Z"/></g>
<g><path style="opacity:1" fill="#70bae9" d="M 538.5,241.5 C 538.833,241.5 539.167,241.5 539.5,241.5C 539.333,267.169 539.5,292.835 540,318.5C 558.904,308.632 578.071,299.132 597.5,290C 648.729,267.362 702.063,252.862 757.5,246.5C 783.528,260.211 795.195,281.878 792.5,311.5C 718.913,349.421 664.247,405.754 628.5,480.5C 598.5,480.5 568.5,480.5 538.5,480.5C 538.5,400.833 538.5,321.167 538.5,241.5 Z"/></g>
<g><path style="opacity:1" fill="#9bc9ea" d="M 795.5,252.5 C 812.439,262.626 823.605,277.292 829,296.5C 830.473,366.142 830.973,435.809 830.5,505.5C 829.668,485.671 829.168,465.671 829,445.5C 827.684,459.129 826.684,472.796 826,486.5C 825.138,484.913 824.471,483.246 824,481.5C 822.193,484.152 821.193,486.819 821,489.5C 820.586,489.043 820.086,488.709 819.5,488.5C 818.719,489.729 818.219,491.062 818,492.5C 817.667,491.5 817.333,490.5 817,489.5C 816.749,491.433 816.249,493.266 815.5,495C 816.336,496.243 816.003,497.41 814.5,498.5C 813.833,429.335 813.167,360.335 812.5,291.5C 812.167,291.5 811.833,291.5 811.5,291.5C 809.674,277.011 804.34,264.011 795.5,252.5 Z"/></g>
<g><path style="opacity:1" fill="#70bae8" d="M 482.5,241.5 C 483.665,279.998 483.831,318.664 483,357.5C 481.161,368.69 475.661,377.523 466.5,384C 402.516,417.324 338.85,451.157 275.5,485.5C 280.213,489.883 284.88,494.217 289.5,498.5C 286.442,500.696 283.109,502.362 279.5,503.5C 266.394,496.779 253.727,489.279 241.5,481C 235.75,475.671 231.916,469.171 230,461.5C 229.168,405.998 229.335,350.665 230.5,295.5C 230.5,333.5 230.5,371.5 230.5,409.5C 244.656,408.93 258.656,407.097 272.5,404C 302.719,394.308 328.219,377.474 349,353.5C 361.876,334.957 377.71,319.457 396.5,307C 415.193,297.102 434.86,289.768 455.5,285C 464.52,281.991 473.186,278.157 481.5,273.5C 482.499,262.854 482.832,252.187 482.5,241.5 Z"/></g>
<g><path style="opacity:1" fill="#8fbbd9" d="M 519.5,237.5 C 519.5,324.833 519.5,412.167 519.5,499.5C 518.502,473.005 518.169,446.339 518.5,419.5C 518.829,405.99 518.496,392.656 517.5,379.5C 518.162,332.069 518.829,284.736 519.5,237.5 Z"/></g>
<g><path style="opacity:1" fill="#2f6994" d="M 792.5,311.5 C 792.5,367.833 792.5,424.167 792.5,480.5C 737.833,480.5 683.167,480.5 628.5,480.5C 664.247,405.754 718.913,349.421 792.5,311.5 Z"/></g>
<g><path style="opacity:1" fill="#d3eefd" d="M 517.5,379.5 C 518.496,392.656 518.829,405.99 518.5,419.5C 514.235,412.233 508.568,406.233 501.5,401.5C 508.753,395.578 514.086,388.244 517.5,379.5 Z"/></g>
<g><path style="opacity:1" fill="#4992c2" d="M 481.5,415.5 C 482.665,480.999 482.832,546.665 482,612.5C 481.697,614.888 480.863,617.055 479.5,619C 418.854,584.886 358.521,550.053 298.5,514.5C 359.306,481.262 420.306,448.262 481.5,415.5 Z"/></g>
<g><path style="opacity:1" fill="#9fcaea" d="M 812.5,291.5 C 813.167,360.335 813.833,429.335 814.5,498.5C 816.003,497.41 816.336,496.243 815.5,495C 816.249,493.266 816.749,491.433 817,489.5C 817.333,490.5 817.667,491.5 818,492.5C 818.219,491.062 818.719,489.729 819.5,488.5C 820.086,488.709 820.586,489.043 821,489.5C 821.193,486.819 822.193,484.152 824,481.5C 824.471,483.246 825.138,484.913 826,486.5C 826.684,472.796 827.684,459.129 829,445.5C 829.168,465.671 829.668,485.671 830.5,505.5C 830.5,509.833 830.5,514.167 830.5,518.5C 824.5,518.5 818.5,518.5 812.5,518.5C 721.173,516.502 629.506,515.836 537.5,516.5C 537.5,511.167 537.5,505.833 537.5,500.5C 629.167,500.5 720.833,500.5 812.5,500.5C 812.5,430.833 812.5,361.167 812.5,291.5 Z"/></g>
<g><path style="opacity:1" fill="#1f577c" d="M 481.5,415.5 C 420.306,448.262 359.306,481.262 298.5,514.5C 291.668,511.588 285.334,507.921 279.5,503.5C 283.109,502.362 286.442,500.696 289.5,498.5C 351.316,466.006 413.149,433.34 475,400.5C 478.81,404.788 480.977,409.788 481.5,415.5 Z"/></g>
<g><path style="opacity:1" fill="#0b1b2a" d="M 811.5,293.5 C 811.5,362.167 811.5,430.833 811.5,499.5C 714.5,499.5 617.5,499.5 520.5,499.5C 616.999,498.501 713.665,498.167 810.5,498.5C 810.167,429.998 810.501,361.665 811.5,293.5 Z"/></g>
<g><path style="opacity:1" fill="#3f637a" d="M 811.5,291.5 C 811.833,291.5 812.167,291.5 812.5,291.5C 812.5,361.167 812.5,430.833 812.5,500.5C 720.833,500.5 629.167,500.5 537.5,500.5C 532.5,500.5 527.5,500.5 522.5,500.5C 521.209,500.737 520.209,500.404 519.5,499.5C 519.833,499.5 520.167,499.5 520.5,499.5C 617.5,499.5 714.5,499.5 811.5,499.5C 811.5,430.833 811.5,362.167 811.5,293.5C 811.5,292.833 811.5,292.167 811.5,291.5 Z"/></g>
<g><path style="opacity:1" fill="#d6edfc" d="M 522.5,500.5 C 527.5,500.5 532.5,500.5 537.5,500.5C 537.5,505.833 537.5,511.167 537.5,516.5C 532.5,516.5 527.5,516.5 522.5,516.5C 522.5,511.167 522.5,505.833 522.5,500.5 Z"/></g>
<g><path style="opacity:1" fill="#95c0df" d="M 233.5,499.5 C 237.773,501.305 241.773,503.639 245.5,506.5C 243.754,508.252 241.754,509.585 239.5,510.5C 236.726,507.287 234.726,503.62 233.5,499.5 Z"/></g>
<g><path style="opacity:1" fill="#192f40" d="M 522.5,516.5 C 527.5,516.5 532.5,516.5 537.5,516.5C 629.506,515.836 721.173,516.502 812.5,518.5C 812.5,522.833 812.5,527.167 812.5,531.5C 812.832,597.335 812.499,663.002 811.5,728.5C 810.501,658.669 810.167,588.669 810.5,518.5C 713.5,518.5 616.5,518.5 519.5,518.5C 519.821,516.952 520.821,516.285 522.5,516.5 Z"/></g>
<g><path style="opacity:1" fill="#0f2433" d="M 231.5,517.5 C 232.738,517.81 232.738,518.31 231.5,519C 233.09,520.046 234.59,521.213 236,522.5C 236.595,523.899 236.428,525.232 235.5,526.5C 236.025,527.192 236.692,527.692 237.5,528C 235.644,530.69 233.311,532.856 230.5,534.5C 229.911,536.373 230.578,538.04 232.5,539.5C 231.195,542.053 230.195,544.72 229.5,547.5C 230.2,547.787 230.867,548.12 231.5,548.5C 230.85,550.435 230.517,552.435 230.5,554.5C 229.335,611.999 229.168,669.665 230,727.5C 231.283,731.414 232.116,735.414 232.5,739.5C 232.565,739.938 232.399,740.272 232,740.5C 231.026,738.122 230.359,738.456 230,741.5C 229.888,738.553 228.388,737.22 225.5,737.5C 225.404,733.689 224.738,733.689 223.5,737.5C 222.264,736.754 220.93,736.421 219.5,736.5C 217.838,731.865 216.171,727.198 214.5,722.5C 213.171,666.462 213.171,610.462 214.5,554.5C 212.995,553.158 212.328,551.492 212.5,549.5C 214.743,536.34 221.076,525.673 231.5,517.5 Z"/></g>
<g><path style="opacity:1" fill="#112635" d="M 519.5,518.5 C 616.5,518.5 713.5,518.5 810.5,518.5C 810.167,588.669 810.501,658.669 811.5,728.5C 810.111,738.999 807.111,748.999 802.5,758.5C 789.694,780.453 770.694,793.619 745.5,798C 676.528,799.477 607.528,799.977 538.5,799.5C 538.167,799.5 537.833,799.5 537.5,799.5C 532.167,799.5 526.833,799.5 521.5,799.5C 519.502,706.173 518.836,612.506 519.5,518.5 Z"/></g>
<g><path style="opacity:1" fill="#9bc9eb" d="M 812.5,531.5 C 818.69,531.177 824.69,531.51 830.5,532.5C 830.5,600.167 830.5,667.833 830.5,735.5C 829.668,711.67 829.168,687.67 829,663.5C 827.763,679.469 826.763,695.469 826,711.5C 825.085,710.672 824.419,709.672 824,708.5C 822.457,713.062 821.124,717.729 820,722.5C 819.667,720.167 819.333,717.833 819,715.5C 818.131,720.508 817.464,720.175 817,714.5C 816.429,722.038 815.762,729.372 815,736.5C 813.921,728.847 812.921,729.181 812,737.5C 811.618,742.579 811.785,747.412 812.5,752C 809.288,753.018 807.455,755.184 807,758.5C 806.667,757.5 806.333,756.5 806,755.5C 805.241,757.063 804.074,758.063 802.5,758.5C 807.111,748.999 810.111,738.999 811.5,728.5C 812.499,663.002 812.832,597.335 812.5,531.5 Z"/></g>
<g><path style="opacity:1" fill="#6fbae9" d="M 247.5,527.5 C 254.715,530.441 261.715,533.941 268.5,538C 297.031,554.764 325.698,571.264 354.5,587.5C 353.29,592.232 350.623,596.066 346.5,599C 333.705,608.319 319.372,612.486 303.5,611.5C 289.961,610.862 276.461,609.862 263,608.5C 252.104,608.377 241.437,609.71 231,612.5C 230.5,593.17 230.333,573.836 230.5,554.5C 230.517,552.435 230.85,550.435 231.5,548.5C 235.124,540.277 240.458,533.277 247.5,527.5 Z"/></g>
<g><path style="opacity:1" fill="#1e557c" d="M 767.5,768.5 C 767.36,766.876 768.027,765.71 769.5,765C 768.874,764.25 768.374,763.416 768,762.5C 765.546,765.281 762.546,767.281 759,768.5C 758.729,766.193 759.895,765.026 762.5,765C 759.77,764.272 757.103,764.438 754.5,765.5C 745.34,763.338 745.34,762.505 754.5,763C 755.308,762.692 755.975,762.192 756.5,761.5C 755.366,759.538 755.366,757.538 756.5,755.5C 755.909,753.734 755.076,752.067 754,750.5C 753.641,753.544 752.974,753.878 752,751.5C 748.89,752.673 748.723,752.173 751.5,750C 750.534,747.103 749.868,744.437 749.5,742C 751.473,741.505 753.473,741.338 755.5,741.5C 754.754,738.614 754.92,735.614 756,732.5C 757.177,733.318 758.51,734.318 760,735.5C 760.945,735.095 761.612,734.428 762,733.5C 763.615,735.011 763.615,736.344 762,737.5C 760.274,736.424 758.441,736.257 756.5,737C 757.416,737.374 758.25,737.874 759,738.5C 759.256,742.74 761.422,744.74 765.5,744.5C 765.351,745.552 765.517,746.552 766,747.5C 767.347,744.16 769.847,742.326 773.5,742C 773.167,741.667 772.833,741.333 772.5,741C 774.541,739.758 775.707,737.925 776,735.5C 776.333,735.833 776.667,736.167 777,736.5C 778.067,735.809 779.234,735.309 780.5,735C 776.5,734.333 776.5,733.667 780.5,733C 779.5,732.667 778.5,732.333 777.5,732C 776.761,730.235 776.761,728.235 777.5,726C 776.167,724.333 774.833,722.667 773.5,721C 774.131,719.232 773.298,718.065 771,717.5C 770.228,717.645 769.561,717.978 769,718.5C 768.581,717.328 767.915,716.328 767,715.5C 766.138,717.087 765.471,718.754 765,720.5C 764.667,719.5 764.333,718.5 764,717.5C 762.837,719.285 762.17,721.285 762,723.5C 761.667,722.167 761.333,720.833 761,719.5C 760.333,721.5 760.333,723.5 761,725.5C 761.654,724.304 762.154,724.304 762.5,725.5C 761.442,727.112 760.108,727.945 758.5,728C 759.267,723.653 759.601,719.319 759.5,715C 759.333,714.5 759.167,714 759,713.5C 757.846,714.743 756.512,715.743 755,716.5C 754.544,715.256 755.044,714.423 756.5,714C 754.781,712.13 753.781,709.963 753.5,707.5C 751.042,708.623 748.875,708.623 747,707.5C 746.333,704.833 746.333,702.167 747,699.5C 747.333,701.5 747.667,703.5 748,705.5C 750.039,705.634 752.206,705.134 754.5,704C 753.167,702.16 753.334,701.66 755,702.5C 755.273,700.899 755.773,699.399 756.5,698C 755.409,695.936 755.242,693.769 756,691.5C 756.915,692.328 757.581,693.328 758,694.5C 758.436,691.716 759.936,690.55 762.5,691C 762.489,693.758 762.823,696.591 763.5,699.5C 764.187,697.726 765.02,696.059 766,694.5C 765.596,696.579 765.43,698.579 765.5,700.5C 765.808,701.308 766.308,701.975 767,702.5C 770.508,699.908 773.675,697.074 776.5,694C 775.698,691.471 775.365,688.637 775.5,685.5C 776.926,681.745 777.926,677.912 778.5,674C 777.789,670.274 777.455,666.44 777.5,662.5C 777.977,661.522 778.643,660.689 779.5,660C 778.833,659.667 778.167,659.333 777.5,659C 778.833,658.333 778.833,657.667 777.5,657C 779.991,656.374 779.991,655.541 777.5,654.5C 778.747,652.958 778.747,651.458 777.5,650C 780.064,648.149 780.064,646.316 777.5,644.5C 777.366,640.359 777.7,636.192 778.5,632C 777.5,631.667 776.5,631.333 775.5,631C 776.474,628.713 777.807,626.713 779.5,625C 777.399,621.764 775.899,618.264 775,614.5C 774.333,617.167 773.667,617.167 773,614.5C 770.832,620.15 768.498,620.483 766,615.5C 765.333,617.167 765.333,618.833 766,620.5C 766.654,619.304 767.154,619.304 767.5,620.5C 766.137,621.893 765.304,623.559 765,625.5C 764.703,622.086 764.036,618.753 763,615.5C 762.223,618.429 762.39,621.263 763.5,624C 762.809,625.067 762.309,626.234 762,627.5C 761.667,625.167 761.333,622.833 761,620.5C 760.026,622.878 759.359,622.544 759,619.5C 758.667,621.5 758.333,623.5 758,625.5C 756.054,622.861 755.054,619.861 755,616.5C 752.965,618.912 751.965,618.245 752,614.5C 750.817,615.731 749.651,615.731 748.5,614.5C 747.38,609.266 746.547,609.266 746,614.5C 745.026,612.122 744.359,612.456 744,615.5C 743.536,609.825 742.869,609.492 742,614.5C 741.154,612.153 739.654,610.32 737.5,609C 735.316,609.608 733.316,608.941 731.5,607C 733.285,605.407 733.452,603.907 732,602.5C 731.667,603.167 731.333,603.833 731,604.5C 729,603.167 727,601.833 725,600.5C 722.912,601.308 720.912,602.308 719,603.5C 718.667,603.167 718.333,602.833 718,602.5C 718.195,604.126 718.195,605.793 718,607.5C 716.163,607.335 714.163,606.668 712,605.5C 711.667,605.833 711.333,606.167 711,606.5C 709.764,604.693 709.43,602.693 710,600.5C 709.667,601.167 709.333,601.833 709,602.5C 708.71,600.956 708.044,599.623 707,598.5C 706.383,599.449 706.549,600.282 707.5,601C 706.584,601.374 705.75,601.874 705,602.5C 702.98,599.648 703.146,596.982 705.5,594.5C 703.779,591.092 703.112,587.425 703.5,583.5C 701.326,583.08 699.326,583.08 697.5,583.5C 696.808,582.975 696.308,582.308 696,581.5C 695.581,582.672 694.915,583.672 694,584.5C 691.936,583.409 689.769,583.242 687.5,584C 689.618,584.26 691.284,585.26 692.5,587C 691.407,588.365 690.074,588.699 688.5,588C 689.654,587.086 689.487,586.253 688,585.5C 687.027,587.392 686.36,589.392 686,591.5C 682.763,591.306 679.597,591.306 676.5,591.5C 675.571,592.689 675.238,594.022 675.5,595.5C 674.127,595.343 672.793,595.51 671.5,596C 670.167,596.667 670.167,597.333 671.5,598C 670.464,599.617 669.297,599.784 668,598.5C 667.647,600.074 666.98,601.741 666,603.5C 665.333,602.167 664.667,602.167 664,603.5C 663.316,604.784 663.483,605.951 664.5,607C 663.833,607.333 663.167,607.667 662.5,608C 663.833,608.667 663.833,609.333 662.5,610C 664.037,611.11 664.703,612.61 664.5,614.5C 666.857,614.337 669.19,614.503 671.5,615C 672.833,615.667 672.833,616.333 671.5,617C 673.112,617.72 674.612,617.554 676,616.5C 678.19,619.493 681.023,620.327 684.5,619C 682.956,619.29 681.623,619.956 680.5,621C 681.449,621.617 682.282,621.451 683,620.5C 683.866,622.896 683.366,623.563 681.5,622.5C 680.743,625.132 680.41,627.632 680.5,630C 682.277,632.152 683.777,631.985 685,629.5C 685.374,630.416 685.874,631.25 686.5,632C 685.234,632.309 684.067,632.809 683,633.5C 681.869,632.396 681.035,632.729 680.5,634.5C 681.529,634.296 682.529,634.796 683.5,636C 681.299,636.358 679.132,637.525 677,639.5C 676.78,636.484 675.613,633.984 673.5,632C 674.772,629.956 674.439,628.122 672.5,626.5C 674.848,625.14 675.015,623.473 673,621.5C 670.836,624.977 670.67,628.31 672.5,631.5C 669.74,631.512 669.24,632.845 671,635.5C 674.601,632.678 675.268,633.344 673,637.5C 672.667,637.167 672.333,636.833 672,636.5C 671.5,637.667 670.667,638.5 669.5,639C 670.731,640.183 670.731,641.349 669.5,642.5C 668.305,640.703 666.638,639.703 664.5,639.5C 664.663,641.857 664.497,644.19 664,646.5C 663.086,642.815 662.419,643.148 662,647.5C 660.833,646.333 659.667,645.167 658.5,644C 657.551,643.383 656.718,643.549 656,644.5C 655.508,643.451 655.674,642.451 656.5,641.5C 653.864,639.936 654.031,638.603 657,637.5C 657.669,640.028 658.502,640.028 659.5,637.5C 659.291,636.914 658.957,636.414 658.5,636C 659.833,635.667 661.167,635.333 662.5,635C 663.833,634 663.833,633 662.5,632C 664.5,631.333 665.833,630 666.5,628C 665.642,624.06 664.142,621.227 662,619.5C 659.524,624.777 658.19,624.777 658,619.5C 657.147,621.125 656.147,621.458 655,620.5C 654.544,621.744 655.044,622.577 656.5,623C 655.299,623.903 654.465,625.069 654,626.5C 653.692,625.692 653.192,625.025 652.5,624.5C 651.28,625.711 650.113,625.711 649,624.5C 648.833,624.833 648.667,625.167 648.5,625.5C 649.376,626.251 650.376,626.751 651.5,627C 649.382,627.26 647.716,628.26 646.5,630C 647.167,630.333 647.833,630.667 648.5,631C 647.333,631.5 646.5,632.333 646,633.5C 645.692,632.692 645.192,632.025 644.5,631.5C 643.747,634.273 642.747,636.94 641.5,639.5C 640.575,640.641 639.741,640.641 639,639.5C 639.438,641.601 639.938,643.435 640.5,645C 638.5,647.333 636.5,649.667 634.5,652C 636.545,652.51 638.379,653.343 640,654.5C 640.333,656.167 640.667,657.833 641,659.5C 641.833,658 643,656.833 644.5,656C 642.012,654.315 642.345,652.981 645.5,652C 644.346,651.086 644.513,650.253 646,649.5C 647,650.5 648,651.5 649,652.5C 649.333,651.833 649.667,651.167 650,650.5C 652.37,653.541 652.536,656.541 650.5,659.5C 650.667,660.167 650.833,660.833 651,661.5C 652.74,660.284 653.74,658.618 654,656.5C 654.249,657.624 654.749,658.624 655.5,659.5C 656.989,659.533 658.322,660.033 659.5,661C 656.18,662.261 655.846,663.928 658.5,666C 657.213,667.41 656.046,668.91 655,670.5C 654.667,670.167 654.333,669.833 654,669.5C 653.64,671.421 652.806,673.088 651.5,674.5C 652.326,675.451 652.492,676.451 652,677.5C 650.984,676.366 650.317,676.699 650,678.5C 649.405,677.101 649.572,675.768 650.5,674.5C 650.192,673.692 649.692,673.025 649,672.5C 648.333,673.833 647.667,673.833 647,672.5C 646.333,673.833 645.333,674.833 644,675.5C 643.383,674.551 643.549,673.718 644.5,673C 643.833,672.667 643.167,672.333 642.5,672C 646.281,670.032 645.781,668.865 641,668.5C 639.893,668.585 638.893,668.919 638,669.5C 637.5,668.5 637,667.5 636.5,666.5C 639.952,663.993 640.286,661.16 637.5,658C 638.604,656.869 638.271,656.035 636.5,655.5C 633.431,656.544 631.264,658.544 630,661.5C 629.333,660.167 628.667,658.833 628,657.5C 624.93,659.828 622.93,662.495 622,665.5C 620.927,664.72 619.76,664.887 618.5,666C 619.061,667.566 618.394,668.899 616.5,670C 620.19,670.424 620.357,671.258 617,672.5C 616.383,673.449 616.549,674.282 617.5,675C 615.899,675.273 614.399,675.773 613,676.5C 612.552,674.591 613.385,673.424 615.5,673C 615.167,672.667 614.833,672.333 614.5,672C 611.729,672.347 609.062,672.18 606.5,671.5C 606.343,672.873 606.51,674.207 607,675.5C 607.333,675.167 607.667,674.833 608,674.5C 608.216,676.384 608.883,678.051 610,679.5C 611.714,678.075 613.047,678.408 614,680.5C 615.617,679.464 615.784,678.297 614.5,677C 615.448,676.517 616.448,676.351 617.5,676.5C 617.351,677.552 617.517,678.552 618,679.5C 620.589,674.062 622.255,674.395 623,680.5C 623.5,680 624,679.5 624.5,679C 623.62,677.644 623.286,676.144 623.5,674.5C 624.822,674.33 625.989,674.663 627,675.5C 629.113,673.729 628.947,672.229 626.5,671C 626.833,670.833 627.167,670.667 627.5,670.5C 629.333,672.167 631.167,673.833 633,675.5C 633.149,672.721 633.983,672.221 635.5,674C 634.809,675.067 634.309,676.234 634,677.5C 633.667,677.167 633.333,676.833 633,676.5C 632.626,677.416 632.126,678.25 631.5,679C 632.951,678.737 634.284,678.904 635.5,679.5C 634.537,682.283 633.37,684.95 632,687.5C 631.237,684.937 630.737,684.937 630.5,687.5C 630.482,689.373 630.982,689.706 632,688.5C 634,689.5 634,690.5 632,691.5C 630.732,691.384 629.398,691.051 628,690.5C 627.221,692.906 628.054,694.573 630.5,695.5C 631.251,694.624 631.751,693.624 632,692.5C 632.167,693.167 632.333,693.833 632.5,694.5C 631.88,699.098 630.714,703.764 629,708.5C 628.043,706.291 626.876,706.457 625.5,709C 628.167,710 628.167,711 625.5,712C 627.969,714.626 627.469,716.793 624,718.5C 622.238,718.056 622.405,717.556 624.5,717C 624,716.5 623.5,716 623,715.5C 621.471,716.729 620.304,718.229 619.5,720C 613.717,721.195 613.05,723.862 617.5,728C 614.972,730.075 615.139,730.908 618,730.5C 619.668,734.237 621.001,734.237 622,730.5C 622.667,731.833 623.333,731.833 624,730.5C 624.667,731.5 624.667,732.5 624,733.5C 623.667,733.167 623.333,732.833 623,732.5C 621.764,734.307 621.43,736.307 622,738.5C 621.237,735.937 620.737,735.937 620.5,738.5C 621.198,739.863 621.198,741.029 620.5,742C 621.667,742.5 622.5,743.333 623,744.5C 623.308,743.692 623.808,743.025 624.5,742.5C 624.296,743.529 624.796,744.529 626,745.5C 628.764,742.442 630.764,742.442 632,745.5C 633.205,746.071 634.372,746.738 635.5,747.5C 634.494,748.396 634.494,749.062 635.5,749.5C 635.993,744.092 638.327,742.759 642.5,745.5C 641.833,745.833 641.167,746.167 640.5,746.5C 641.471,747.962 641.138,749.295 639.5,750.5C 638.914,750.291 638.414,749.957 638,749.5C 635.689,750.487 633.355,751.487 631,752.5C 629.049,751.715 627.215,750.715 625.5,749.5C 622.899,749.972 620.399,751.305 618,753.5C 615,752.167 612,752.167 609,753.5C 607.488,752.743 606.154,751.743 605,750.5C 603.47,751.92 601.637,752.92 599.5,753.5C 597.913,755.085 597.08,756.752 597,758.5C 596.396,756.314 595.23,756.148 593.5,758C 594.258,760.585 594.758,763.418 595,766.5C 594.667,766.167 594.333,765.833 594,765.5C 592.276,768.73 590.276,769.064 588,766.5C 587.667,767.167 587.333,767.833 587,768.5C 586.751,767.376 586.251,766.376 585.5,765.5C 584.289,766.274 584.289,767.107 585.5,768C 583.899,768.273 582.399,768.773 581,769.5C 579.984,768.366 579.317,768.699 579,770.5C 578.667,769.833 578.333,769.167 578,768.5C 577.612,769.428 576.945,770.095 576,770.5C 574.578,769.795 573.245,769.461 572,769.5C 569.26,770.282 566.426,770.782 563.5,771C 568.167,771.333 572.833,771.667 577.5,772C 572.5,772.333 567.5,772.667 562.5,773C 565.638,774.244 568.972,774.911 572.5,775C 568.833,775.333 565.167,775.667 561.5,776C 575.765,777.282 590.099,777.949 604.5,778C 603.263,778.232 602.263,778.732 601.5,779.5C 580.5,779.5 559.5,779.5 538.5,779.5C 538.5,747.5 538.5,715.5 538.5,683.5C 538.833,683.5 539.167,683.5 539.5,683.5C 572.087,682.288 599.253,669.621 621,645.5C 632.333,629.5 643.667,613.5 655,597.5C 670.367,582.561 688.534,572.394 709.5,567C 726.729,562.629 744.063,558.796 761.5,555.5C 763.482,555.005 765.482,554.505 767.5,554C 691.167,553.5 614.834,553.333 538.5,553.5C 538.5,547.5 538.5,541.5 538.5,535.5C 623.167,535.5 707.833,535.5 792.5,535.5C 792.667,600.168 792.5,664.834 792,729.5C 789.854,746.494 781.688,759.494 767.5,768.5 Z"/></g>
<g><path style="opacity:1" fill="#3b7da8" d="M 538.5,553.5 C 614.834,553.333 691.167,553.5 767.5,554C 765.482,554.505 763.482,555.005 761.5,555.5C 687.669,554.501 613.669,554.167 539.5,554.5C 539.5,597.5 539.5,640.5 539.5,683.5C 539.167,683.5 538.833,683.5 538.5,683.5C 538.5,640.167 538.5,596.833 538.5,553.5 Z"/></g>
<g><path style="opacity:1" fill="#4992c2" d="M 761.5,555.5 C 744.063,558.796 726.729,562.629 709.5,567C 688.534,572.394 670.367,582.561 655,597.5C 643.667,613.5 632.333,629.5 621,645.5C 599.253,669.621 572.087,682.288 539.5,683.5C 539.5,640.5 539.5,597.5 539.5,554.5C 613.669,554.167 687.669,554.501 761.5,555.5 Z"/></g>
<g><path style="opacity:1" fill="#1e557c" d="M 767.5,768.5 C 759.271,774.636 749.938,778.136 739.5,779C 693.501,779.5 647.501,779.667 601.5,779.5C 602.263,778.732 603.263,778.232 604.5,778C 590.099,777.949 575.765,777.282 561.5,776C 565.167,775.667 568.833,775.333 572.5,775C 568.972,774.911 565.638,774.244 562.5,773C 567.5,772.667 572.5,772.333 577.5,772C 572.833,771.667 568.167,771.333 563.5,771C 566.426,770.782 569.26,770.282 572,769.5C 573.245,769.461 574.578,769.795 576,770.5C 576.945,770.095 577.612,769.428 578,768.5C 578.333,769.167 578.667,769.833 579,770.5C 579.317,768.699 579.984,768.366 581,769.5C 582.399,768.773 583.899,768.273 585.5,768C 584.289,767.107 584.289,766.274 585.5,765.5C 586.251,766.376 586.751,767.376 587,768.5C 587.333,767.833 587.667,767.167 588,766.5C 590.276,769.064 592.276,768.73 594,765.5C 594.333,765.833 594.667,766.167 595,766.5C 594.758,763.418 594.258,760.585 593.5,758C 595.23,756.148 596.396,756.314 597,758.5C 597.08,756.752 597.913,755.085 599.5,753.5C 601.637,752.92 603.47,751.92 605,750.5C 606.154,751.743 607.488,752.743 609,753.5C 612,752.167 615,752.167 618,753.5C 620.399,751.305 622.899,749.972 625.5,749.5C 627.215,750.715 629.049,751.715 631,752.5C 633.355,751.487 635.689,750.487 638,749.5C 638.414,749.957 638.914,750.291 639.5,750.5C 641.138,749.295 641.471,747.962 640.5,746.5C 641.167,746.167 641.833,745.833 642.5,745.5C 638.327,742.759 635.993,744.092 635.5,749.5C 634.494,749.062 634.494,748.396 635.5,747.5C 634.372,746.738 633.205,746.071 632,745.5C 630.764,742.442 628.764,742.442 626,745.5C 624.796,744.529 624.296,743.529 624.5,742.5C 623.808,743.025 623.308,743.692 623,744.5C 622.5,743.333 621.667,742.5 620.5,742C 621.198,741.029 621.198,739.863 620.5,738.5C 620.737,735.937 621.237,735.937 622,738.5C 621.43,736.307 621.764,734.307 623,732.5C 623.333,732.833 623.667,733.167 624,733.5C 624.667,732.5 624.667,731.5 624,730.5C 623.333,731.833 622.667,731.833 622,730.5C 621.001,734.237 619.668,734.237 618,730.5C 615.139,730.908 614.972,730.075 617.5,728C 613.05,723.862 613.717,721.195 619.5,720C 620.304,718.229 621.471,716.729 623,715.5C 623.5,716 624,716.5 624.5,717C 622.405,717.556 622.238,718.056 624,718.5C 627.469,716.793 627.969,714.626 625.5,712C 628.167,711 628.167,710 625.5,709C 626.876,706.457 628.043,706.291 629,708.5C 630.714,703.764 631.88,699.098 632.5,694.5C 632.333,693.833 632.167,693.167 632,692.5C 631.751,693.624 631.251,694.624 630.5,695.5C 628.054,694.573 627.221,692.906 628,690.5C 629.398,691.051 630.732,691.384 632,691.5C 634,690.5 634,689.5 632,688.5C 630.982,689.706 630.482,689.373 630.5,687.5C 630.737,684.937 631.237,684.937 632,687.5C 633.37,684.95 634.537,682.283 635.5,679.5C 634.284,678.904 632.951,678.737 631.5,679C 632.126,678.25 632.626,677.416 633,676.5C 633.333,676.833 633.667,677.167 634,677.5C 634.309,676.234 634.809,675.067 635.5,674C 633.983,672.221 633.149,672.721 633,675.5C 631.167,673.833 629.333,672.167 627.5,670.5C 627.167,670.667 626.833,670.833 626.5,671C 628.947,672.229 629.113,673.729 627,675.5C 625.989,674.663 624.822,674.33 623.5,674.5C 623.286,676.144 623.62,677.644 624.5,679C 624,679.5 623.5,680 623,680.5C 622.255,674.395 620.589,674.062 618,679.5C 617.517,678.552 617.351,677.552 617.5,676.5C 616.448,676.351 615.448,676.517 614.5,677C 615.784,678.297 615.617,679.464 614,680.5C 613.047,678.408 611.714,678.075 610,679.5C 608.883,678.051 608.216,676.384 608,674.5C 607.667,674.833 607.333,675.167 607,675.5C 606.51,674.207 606.343,672.873 606.5,671.5C 609.062,672.18 611.729,672.347 614.5,672C 614.833,672.333 615.167,672.667 615.5,673C 613.385,673.424 612.552,674.591 613,676.5C 614.399,675.773 615.899,675.273 617.5,675C 616.549,674.282 616.383,673.449 617,672.5C 620.357,671.258 620.19,670.424 616.5,670C 618.394,668.899 619.061,667.566 618.5,666C 619.76,664.887 620.927,664.72 622,665.5C 622.93,662.495 624.93,659.828 628,657.5C 628.667,658.833 629.333,660.167 630,661.5C 631.264,658.544 633.431,656.544 636.5,655.5C 638.271,656.035 638.604,656.869 637.5,658C 640.286,661.16 639.952,663.993 636.5,666.5C 637,667.5 637.5,668.5 638,669.5C 638.893,668.919 639.893,668.585 641,668.5C 645.781,668.865 646.281,670.032 642.5,672C 643.167,672.333 643.833,672.667 644.5,673C 643.549,673.718 643.383,674.551 644,675.5C 645.333,674.833 646.333,673.833 647,672.5C 647.667,673.833 648.333,673.833 649,672.5C 649.692,673.025 650.192,673.692 650.5,674.5C 649.572,675.768 649.405,677.101 650,678.5C 650.317,676.699 650.984,676.366 652,677.5C 652.492,676.451 652.326,675.451 651.5,674.5C 652.806,673.088 653.64,671.421 654,669.5C 654.333,669.833 654.667,670.167 655,670.5C 656.046,668.91 657.213,667.41 658.5,666C 655.846,663.928 656.18,662.261 659.5,661C 658.322,660.033 656.989,659.533 655.5,659.5C 654.749,658.624 654.249,657.624 654,656.5C 653.74,658.618 652.74,660.284 651,661.5C 650.833,660.833 650.667,660.167 650.5,659.5C 652.536,656.541 652.37,653.541 650,650.5C 649.667,651.167 649.333,651.833 649,652.5C 648,651.5 647,650.5 646,649.5C 644.513,650.253 644.346,651.086 645.5,652C 642.345,652.981 642.012,654.315 644.5,656C 643,656.833 641.833,658 641,659.5C 640.667,657.833 640.333,656.167 640,654.5C 638.379,653.343 636.545,652.51 634.5,652C 636.5,649.667 638.5,647.333 640.5,645C 639.938,643.435 639.438,641.601 639,639.5C 639.741,640.641 640.575,640.641 641.5,639.5C 642.747,636.94 643.747,634.273 644.5,631.5C 645.192,632.025 645.692,632.692 646,633.5C 646.5,632.333 647.333,631.5 648.5,631C 647.833,630.667 647.167,630.333 646.5,630C 647.716,628.26 649.382,627.26 651.5,627C 650.376,626.751 649.376,626.251 648.5,625.5C 648.667,625.167 648.833,624.833 649,624.5C 650.113,625.711 651.28,625.711 652.5,624.5C 653.192,625.025 653.692,625.692 654,626.5C 654.465,625.069 655.299,623.903 656.5,623C 655.044,622.577 654.544,621.744 655,620.5C 656.147,621.458 657.147,621.125 658,619.5C 658.19,624.777 659.524,624.777 662,619.5C 664.142,621.227 665.642,624.06 666.5,628C 665.833,630 664.5,631.333 662.5,632C 663.833,633 663.833,634 662.5,635C 661.167,635.333 659.833,635.667 658.5,636C 658.957,636.414 659.291,636.914 659.5,637.5C 658.502,640.028 657.669,640.028 657,637.5C 654.031,638.603 653.864,639.936 656.5,641.5C 655.674,642.451 655.508,643.451 656,644.5C 656.718,643.549 657.551,643.383 658.5,644C 659.667,645.167 660.833,646.333 662,647.5C 662.419,643.148 663.086,642.815 664,646.5C 664.497,644.19 664.663,641.857 664.5,639.5C 666.638,639.703 668.305,640.703 669.5,642.5C 670.731,641.349 670.731,640.183 669.5,639C 670.667,638.5 671.5,637.667 672,636.5C 672.333,636.833 672.667,637.167 673,637.5C 675.268,633.344 674.601,632.678 671,635.5C 669.24,632.845 669.74,631.512 672.5,631.5C 670.67,628.31 670.836,624.977 673,621.5C 675.015,623.473 674.848,625.14 672.5,626.5C 674.439,628.122 674.772,629.956 673.5,632C 675.613,633.984 676.78,636.484 677,639.5C 679.132,637.525 681.299,636.358 683.5,636C 682.529,634.796 681.529,634.296 680.5,634.5C 681.035,632.729 681.869,632.396 683,633.5C 684.067,632.809 685.234,632.309 686.5,632C 685.874,631.25 685.374,630.416 685,629.5C 683.777,631.985 682.277,632.152 680.5,630C 680.41,627.632 680.743,625.132 681.5,622.5C 683.366,623.563 683.866,622.896 683,620.5C 682.282,621.451 681.449,621.617 680.5,621C 681.623,619.956 682.956,619.29 684.5,619C 681.023,620.327 678.19,619.493 676,616.5C 674.612,617.554 673.112,617.72 671.5,617C 672.833,616.333 672.833,615.667 671.5,615C 669.19,614.503 666.857,614.337 664.5,614.5C 664.703,612.61 664.037,611.11 662.5,610C 663.833,609.333 663.833,608.667 662.5,608C 663.167,607.667 663.833,607.333 664.5,607C 663.483,605.951 663.316,604.784 664,603.5C 664.667,602.167 665.333,602.167 666,603.5C 666.98,601.741 667.647,600.074 668,598.5C 669.297,599.784 670.464,599.617 671.5,598C 670.167,597.333 670.167,596.667 671.5,596C 672.793,595.51 674.127,595.343 675.5,595.5C 675.238,594.022 675.571,592.689 676.5,591.5C 679.597,591.306 682.763,591.306 686,591.5C 686.36,589.392 687.027,587.392 688,585.5C 689.487,586.253 689.654,587.086 688.5,588C 690.074,588.699 691.407,588.365 692.5,587C 691.284,585.26 689.618,584.26 687.5,584C 689.769,583.242 691.936,583.409 694,584.5C 694.915,583.672 695.581,582.672 696,581.5C 696.308,582.308 696.808,582.975 697.5,583.5C 699.326,583.08 701.326,583.08 703.5,583.5C 703.112,587.425 703.779,591.092 705.5,594.5C 703.146,596.982 702.98,599.648 705,602.5C 705.75,601.874 706.584,601.374 707.5,601C 706.549,600.282 706.383,599.449 707,598.5C 708.044,599.623 708.71,600.956 709,602.5C 709.333,601.833 709.667,601.167 710,600.5C 709.43,602.693 709.764,604.693 711,606.5C 711.333,606.167 711.667,605.833 712,605.5C 714.163,606.668 716.163,607.335 718,607.5C 718.195,605.793 718.195,604.126 718,602.5C 718.333,602.833 718.667,603.167 719,603.5C 720.912,602.308 722.912,601.308 725,600.5C 727,601.833 729,603.167 731,604.5C 731.333,603.833 731.667,603.167 732,602.5C 733.452,603.907 733.285,605.407 731.5,607C 733.316,608.941 735.316,609.608 737.5,609C 739.654,610.32 741.154,612.153 742,614.5C 742.869,609.492 743.536,609.825 744,615.5C 744.359,612.456 745.026,612.122 746,614.5C 746.547,609.266 747.38,609.266 748.5,614.5C 749.651,615.731 750.817,615.731 752,614.5C 751.965,618.245 752.965,618.912 755,616.5C 755.054,619.861 756.054,622.861 758,625.5C 758.333,623.5 758.667,621.5 759,619.5C 759.359,622.544 760.026,622.878 761,620.5C 761.333,622.833 761.667,625.167 762,627.5C 762.309,626.234 762.809,625.067 763.5,624C 762.39,621.263 762.223,618.429 763,615.5C 764.036,618.753 764.703,622.086 765,625.5C 765.304,623.559 766.137,621.893 767.5,620.5C 767.154,619.304 766.654,619.304 766,620.5C 765.333,618.833 765.333,617.167 766,615.5C 768.498,620.483 770.832,620.15 773,614.5C 773.667,617.167 774.333,617.167 775,614.5C 775.899,618.264 777.399,621.764 779.5,625C 777.807,626.713 776.474,628.713 775.5,631C 776.5,631.333 777.5,631.667 778.5,632C 777.7,636.192 777.366,640.359 777.5,644.5C 780.064,646.316 780.064,648.149 777.5,650C 778.747,651.458 778.747,652.958 777.5,654.5C 779.991,655.541 779.991,656.374 777.5,657C 778.833,657.667 778.833,658.333 777.5,659C 778.167,659.333 778.833,659.667 779.5,660C 778.643,660.689 777.977,661.522 777.5,662.5C 777.455,666.44 777.789,670.274 778.5,674C 777.926,677.912 776.926,681.745 775.5,685.5C 775.365,688.637 775.698,691.471 776.5,694C 773.675,697.074 770.508,699.908 767,702.5C 766.308,701.975 765.808,701.308 765.5,700.5C 765.43,698.579 765.596,696.579 766,694.5C 765.02,696.059 764.187,697.726 763.5,699.5C 762.823,696.591 762.489,693.758 762.5,691C 759.936,690.55 758.436,691.716 758,694.5C 757.581,693.328 756.915,692.328 756,691.5C 755.242,693.769 755.409,695.936 756.5,698C 755.773,699.399 755.273,700.899 755,702.5C 753.334,701.66 753.167,702.16 754.5,704C 752.206,705.134 750.039,705.634 748,705.5C 747.667,703.5 747.333,701.5 747,699.5C 746.333,702.167 746.333,704.833 747,707.5C 748.875,708.623 751.042,708.623 753.5,707.5C 753.781,709.963 754.781,712.13 756.5,714C 755.044,714.423 754.544,715.256 755,716.5C 756.512,715.743 757.846,714.743 759,713.5C 759.167,714 759.333,714.5 759.5,715C 759.601,719.319 759.267,723.653 758.5,728C 760.108,727.945 761.442,727.112 762.5,725.5C 762.154,724.304 761.654,724.304 761,725.5C 760.333,723.5 760.333,721.5 761,719.5C 761.333,720.833 761.667,722.167 762,723.5C 762.17,721.285 762.837,719.285 764,717.5C 764.333,718.5 764.667,719.5 765,720.5C 765.471,718.754 766.138,717.087 767,715.5C 767.915,716.328 768.581,717.328 769,718.5C 769.561,717.978 770.228,717.645 771,717.5C 773.298,718.065 774.131,719.232 773.5,721C 774.833,722.667 776.167,724.333 777.5,726C 776.761,728.235 776.761,730.235 777.5,732C 778.5,732.333 779.5,732.667 780.5,733C 776.5,733.667 776.5,734.333 780.5,735C 779.234,735.309 778.067,735.809 777,736.5C 776.667,736.167 776.333,735.833 776,735.5C 775.707,737.925 774.541,739.758 772.5,741C 772.833,741.333 773.167,741.667 773.5,742C 769.847,742.326 767.347,744.16 766,747.5C 765.517,746.552 765.351,745.552 765.5,744.5C 761.422,744.74 759.256,742.74 759,738.5C 758.25,737.874 757.416,737.374 756.5,737C 758.441,736.257 760.274,736.424 762,737.5C 763.615,736.344 763.615,735.011 762,733.5C 761.612,734.428 760.945,735.095 760,735.5C 758.51,734.318 757.177,733.318 756,732.5C 754.92,735.614 754.754,738.614 755.5,741.5C 753.473,741.338 751.473,741.505 749.5,742C 749.868,744.437 750.534,747.103 751.5,750C 748.723,752.173 748.89,752.673 752,751.5C 752.974,753.878 753.641,753.544 754,750.5C 755.076,752.067 755.909,753.734 756.5,755.5C 755.366,757.538 755.366,759.538 756.5,761.5C 755.975,762.192 755.308,762.692 754.5,763C 745.34,762.505 745.34,763.338 754.5,765.5C 757.103,764.438 759.77,764.272 762.5,765C 759.895,765.026 758.729,766.193 759,768.5C 762.546,767.281 765.546,765.281 768,762.5C 768.374,763.416 768.874,764.25 769.5,765C 768.027,765.71 767.36,766.876 767.5,768.5 Z"/></g>
<g><path style="opacity:1" fill="#4992c1" d="M 230.5,554.5 C 230.333,573.836 230.5,593.17 231,612.5C 241.437,609.71 252.104,608.377 263,608.5C 276.461,609.862 289.961,610.862 303.5,611.5C 319.372,612.486 333.705,608.319 346.5,599C 350.623,596.066 353.29,592.232 354.5,587.5C 394.22,610.444 433.72,633.777 473,657.5C 473.5,666.16 473.666,674.827 473.5,683.5C 416.365,666.863 365.031,677.363 319.5,715C 309.333,723.833 299.833,733.333 291,743.5C 282.814,753.903 274.647,764.236 266.5,774.5C 250.407,767.408 239.074,755.741 232.5,739.5C 232.116,735.414 231.283,731.414 230,727.5C 229.168,669.665 229.335,611.999 230.5,554.5 Z"/></g>
<g><path style="opacity:1" fill="#9fcaea" d="M 519.5,221.5 C 519.5,226.833 519.5,232.167 519.5,237.5C 518.829,284.736 518.162,332.069 517.5,379.5C 514.086,388.244 508.753,395.578 501.5,401.5C 508.568,406.233 514.235,412.233 518.5,419.5C 518.169,446.339 518.502,473.005 519.5,499.5C 520.209,500.404 521.209,500.737 522.5,500.5C 522.5,505.833 522.5,511.167 522.5,516.5C 520.821,516.285 519.821,516.952 519.5,518.5C 518.836,612.506 519.502,706.173 521.5,799.5C 521.5,805.5 521.5,811.5 521.5,817.5C 447.166,817.667 372.833,817.5 298.5,817C 278.259,814.63 261.425,805.796 248,790.5C 247.209,789.255 246.709,787.922 246.5,786.5C 256.887,793.074 268.22,797.074 280.5,798.5C 354.331,799.499 428.331,799.833 502.5,799.5C 502.832,752.664 502.499,705.997 501.5,659.5C 500.592,650.278 497.592,641.778 492.5,634C 497.234,626.469 500.401,618.302 502,609.5C 502.667,546.167 502.667,482.833 502,419.5C 500.722,408.116 496.555,397.949 489.5,389C 495.857,380.12 499.857,370.286 501.5,359.5C 502.499,318.67 502.832,277.67 502.5,236.5C 507.833,236.5 513.167,236.5 518.5,236.5C 518.179,231.305 518.513,226.305 519.5,221.5 Z"/></g>
<g><path style="opacity:1" fill="#d8f1fe" d="M 517.5,628.5 C 518.66,640.326 518.826,652.326 518,664.5C 514.094,658.009 509.261,652.342 503.5,647.5C 510.386,642.698 515.053,636.365 517.5,628.5 Z"/></g>
<g><path style="opacity:1" fill="#c1e1f6" d="M 830.5,532.5 C 831.665,602.999 831.832,673.665 831,744.5C 830.79,746.058 830.29,747.391 829.5,748.5C 830.08,744.19 830.414,739.857 830.5,735.5C 830.5,667.833 830.5,600.167 830.5,532.5 Z"/></g>
<g><path style="opacity:1" fill="#9fc9ea" d="M 830.5,735.5 C 830.414,739.857 830.08,744.19 829.5,748.5C 820.867,789.798 795.534,812.465 753.5,816.5C 681.833,816.5 610.167,816.5 538.5,816.5C 538.5,810.833 538.5,805.167 538.5,799.5C 607.528,799.977 676.528,799.477 745.5,798C 770.694,793.619 789.694,780.453 802.5,758.5C 804.074,758.063 805.241,757.063 806,755.5C 806.333,756.5 806.667,757.5 807,758.5C 807.455,755.184 809.288,753.018 812.5,752C 811.785,747.412 811.618,742.579 812,737.5C 812.921,729.181 813.921,728.847 815,736.5C 815.762,729.372 816.429,722.038 817,714.5C 817.464,720.175 818.131,720.508 819,715.5C 819.333,717.833 819.667,720.167 820,722.5C 821.124,717.729 822.457,713.062 824,708.5C 824.419,709.672 825.085,710.672 826,711.5C 826.763,695.469 827.763,679.469 829,663.5C 829.168,687.67 829.668,711.67 830.5,735.5 Z"/></g>
<g><path style="opacity:1" fill="#1e567c" d="M 266.5,774.5 C 274.647,764.236 282.814,753.903 291,743.5C 299.833,733.333 309.333,723.833 319.5,715C 365.031,677.363 416.365,666.863 473.5,683.5C 473.666,674.827 473.5,666.16 473,657.5C 433.72,633.777 394.22,610.444 354.5,587.5C 325.698,571.264 297.031,554.764 268.5,538C 261.715,533.941 254.715,530.441 247.5,527.5C 253.374,522.728 260.04,519.895 267.5,519C 319.84,549.839 372.507,580.172 425.5,610C 441.084,619.375 456.584,628.875 472,638.5C 476.376,643.919 479.71,649.919 482,656.5C 482.5,697.499 482.667,738.499 482.5,779.5C 414.833,779.667 347.166,779.5 279.5,779C 274.757,778.365 270.424,776.865 266.5,774.5 Z"/></g>
<g><path style="opacity:1" fill="#0a1a28" d="M 501.5,661.5 C 501.5,707.167 501.5,752.833 501.5,798.5C 428.167,798.5 354.833,798.5 281.5,798.5C 354.331,797.501 427.331,797.167 500.5,797.5C 500.168,751.997 500.501,706.664 501.5,661.5 Z"/></g>
<g><path style="opacity:1" fill="#47667c" d="M 501.5,659.5 C 502.499,705.997 502.832,752.664 502.5,799.5C 428.331,799.833 354.331,799.499 280.5,798.5C 280.833,798.5 281.167,798.5 281.5,798.5C 354.833,798.5 428.167,798.5 501.5,798.5C 501.5,752.833 501.5,707.167 501.5,661.5C 501.5,660.833 501.5,660.167 501.5,659.5 Z"/></g>
<g><path style="opacity:1" fill="#b4d7f0" d="M 537.5,799.5 C 537.833,799.5 538.167,799.5 538.5,799.5C 538.5,805.167 538.5,810.833 538.5,816.5C 610.167,816.5 681.833,816.5 753.5,816.5C 681.669,817.499 609.669,817.833 537.5,817.5C 537.5,811.5 537.5,805.5 537.5,799.5 Z"/></g>
</svg>
